<?xml version="1.0" standalone="no"?>
<!DOCTYPE svg PUBLIC "-//W3C//DTD SVG 20010904//EN"
 "http://www.w3.org/TR/2001/REC-SVG-20010904/DTD/svg10.dtd">
<svg version="1.0" xmlns="http://www.w3.org/2000/svg"
 width="7825.000000pt" height="7820.000000pt" viewBox="0 0 7825.000000 7820.000000"
 preserveAspectRatio="xMidYMid meet">

<g transform="translate(0.000000,7820.000000) scale(0.100000,-0.100000)"
fill="#000000" stroke="none">
<path d="M62885 78179 c-2379 -76 -4527 -538 -6445 -1384 -405 -178 -1021
-496 -1420 -732 -2274 -1347 -4005 -3311 -5030 -5708 -862 -2015 -1217 -4268
-1049 -6665 257 -3689 1759 -7571 4321 -11170 269 -378 463 -638 1078 -1450
4528 -5971 7587 -10989 8820 -14467 233 -656 413 -1355 446 -1725 11 -125 26
-101 39 62 17 196 103 620 195 956 458 1672 1554 4002 3123 6639 1517 2549
3455 5378 5862 8555 841 1111 1077 1435 1471 2020 1299 1932 2283 3897 2956
5900 1690 5037 1216 9933 -1310 13539 -1363 1947 -3268 3444 -5609 4407 -2160
888 -4730 1311 -7448 1223z m1500 -953 c3290 -204 6317 -1534 8524 -3747 997
-999 1767 -2112 2331 -3369 49 -107 86 -197 84 -199 -1 -2 -67 57 -146 132
-660 625 -1468 1167 -2308 1550 -787 358 -1585 586 -2515 719 -149 21 -193 23
-655 23 -520 0 -648 -6 -1022 -50 -1457 -171 -2747 -732 -3533 -1535 l-100
-102 40 6 c22 4 81 13 131 21 508 78 1115 -50 1755 -371 266 -132 519 -294
843 -537 637 -479 1078 -986 1279 -1472 104 -253 143 -461 134 -727 -12 -376
-133 -721 -395 -1122 -231 -352 -516 -597 -907 -778 -375 -174 -755 -269
-1305 -325 -244 -24 -850 -24 -1140 0 -1185 102 -2400 423 -3583 948 -373 165
-657 315 -884 467 -1721 1149 -3531 1848 -5258 2031 -354 38 -515 46 -925 46
-499 0 -807 -22 -1245 -90 -695 -108 -1427 -331 -1966 -600 -159 -79 -187 -94
-352 -193 -60 -35 -110 -62 -112 -60 -2 2 12 75 30 163 359 1662 1143 3255
2274 4620 499 601 1106 1198 1726 1696 1468 1179 3189 2022 5068 2484 829 203
1713 334 2542 375 116 6 242 12 280 14 166 8 1088 -4 1310 -18z m6035 -6991
c695 -64 1312 -212 1940 -468 215 -87 655 -306 850 -423 1442 -860 2560 -2247
3114 -3863 216 -630 321 -1204 333 -1821 14 -720 -110 -1327 -382 -1870 -199
-398 -464 -724 -822 -1011 -679 -543 -1476 -837 -2469 -910 -212 -15 -812 -7
-1039 15 -1820 173 -3834 954 -5840 2267 -142 93 -518 351 -537 368 -4 4 54
-1 130 -11 604 -76 1318 -89 1848 -34 1052 110 1893 429 2590 983 149 118 469
441 582 588 314 406 598 935 764 1425 155 456 228 983 198 1435 -48 743 -283
1411 -736 2090 -270 405 -582 760 -1034 1179 l-95 88 220 -6 c121 -3 294 -13
385 -21z m-15518 -3915 c1656 -110 3413 -783 5121 -1962 103 -71 187 -134 187
-139 0 -5 19 -18 43 -30 48 -25 329 -235 552 -413 235 -188 442 -365 824 -709
564 -507 980 -852 1491 -1238 1696 -1282 3659 -2335 5525 -2966 2140 -723
4101 -906 5794 -542 354 76 708 181 1030 305 91 35 166 62 168 61 4 -5 -210
-352 -328 -532 -246 -374 -564 -803 -612 -823 -123 -53 -423 -171 -587 -230
-1704 -618 -3531 -845 -5275 -656 -1134 122 -2263 430 -3355 914 -420 187
-700 331 -1290 663 -1776 1001 -3166 1671 -4480 2159 -2140 795 -3836 977
-5120 548 -334 -111 -577 -229 -855 -414 -686 -456 -1220 -1191 -1419 -1954
l-32 -122 -111 177 c-423 679 -800 1443 -1078 2190 -157 418 -396 1280 -480
1724 -109 579 -123 1192 -39 1659 158 873 697 1510 1600 1889 583 244 1224
393 1894 440 170 12 656 12 832 1z"/>
<path d="M33715 71770 c-1951 -72 -3843 -327 -5798 -781 -5185 -1204 -10323
-3755 -14667 -7283 -1666 -1353 -3230 -2871 -4576 -4441 -1589 -1854 -2846
-3703 -4122 -6066 -2718 -5032 -4250 -10326 -4512 -15594 -36 -728 -47 -2018
-22 -2640 60 -1479 168 -2613 383 -3990 522 -3352 1484 -6607 2866 -9695 399
-892 948 -1992 1418 -2840 1267 -2287 2769 -4430 4454 -6355 2409 -2752 5181
-5066 8221 -6865 1245 -737 2840 -1561 4100 -2118 1816 -802 3683 -1429 6075
-2038 1548 -395 2469 -586 3595 -748 1074 -155 2045 -241 3280 -291 594 -25
1847 -22 2482 5 3505 147 6966 766 10318 1845 2456 791 4622 1745 6654 2932
5636 3293 9786 7420 13010 12941 762 1306 1455 2653 2014 3917 2312 5233 3285
10898 2882 16785 -132 1927 -412 3879 -836 5829 -52 239 -95 435 -97 437 -1 1
-47 -12 -102 -28 -55 -15 -134 -31 -176 -35 l-77 -6 -31 -61 c-18 -34 -54 -92
-81 -131 -136 -194 -200 -298 -302 -495 -61 -118 -148 -278 -193 -355 -233
-396 -300 -527 -344 -674 -47 -155 -53 -205 -58 -506 -10 -527 27 -997 172
-2205 152 -1265 199 -1741 249 -2495 48 -720 59 -1075 60 -1900 1 -868 -15
-1368 -70 -2170 -525 -7769 -3387 -14670 -8393 -20245 -827 -920 -1829 -1915
-2774 -2753 -1630 -1445 -3407 -2755 -5347 -3944 -2323 -1423 -5322 -2749
-7977 -3527 -974 -285 -1695 -454 -2678 -625 -3326 -580 -6438 -804 -9120
-656 -1196 66 -2312 205 -3345 416 -279 57 -857 186 -1272 284 -5338 1261
-9488 3119 -13223 5924 -1095 822 -2302 1849 -3275 2785 -902 869 -1460 1445
-2086 2151 -4980 5626 -7996 13149 -8393 20935 -35 675 -44 1040 -44 1775 0
735 10 1140 43 1790 278 5412 1837 10597 4556 15156 639 1072 1431 2246 2213
3279 2038 2694 4377 5002 7046 6955 1670 1221 3446 2294 5410 3266 1469 727
2455 1137 3925 1630 2406 809 5000 1382 7145 1579 856 78 1964 105 4290 104
1284 0 1442 -2 1905 -22 864 -38 1387 -77 1995 -147 608 -71 1127 -183 2890
-624 1697 -424 2484 -584 2941 -598 l190 -6 74 169 c201 461 280 733 310 1065
6 68 10 169 8 224 l-3 100 -90 49 c-1577 852 -5286 1438 -10215 1612 -501 18
-2503 27 -2875 14z"/>
<path d="M30315 66954 c-987 -88 -2469 -481 -4275 -1134 -1918 -693 -4113
-1648 -5260 -2288 -1823 -1017 -4101 -2611 -5670 -3968 -700 -605 -1313 -1218
-1632 -1632 -47 -61 -54 -48 67 -131 707 -486 4653 -2211 6910 -3021 638 -229
1105 -370 1295 -393 l45 -6 1005 1677 c553 922 1113 1845 1246 2052 1152 1797
2702 3932 4073 5609 423 519 497 604 1261 1446 914 1008 1280 1442 1473 1748
l37 57 -213 -1 c-116 -1 -279 -7 -362 -15z"/>
<path d="M34573 66941 c-602 -285 -2795 -2705 -5144 -5676 -2679 -3389 -4545
-6178 -4958 -7412 -55 -165 -98 -367 -81 -378 13 -8 419 -125 605 -174 1841
-485 4446 -986 6360 -1221 1041 -128 1754 -177 2425 -167 375 5 548 18 768 54
l102 17 0 7493 c0 4121 -3 7493 -7 7493 -5 0 -36 -13 -70 -29z"/>
<path d="M41602 66873 c8 -10 55 -67 104 -128 111 -138 495 -576 899 -1025
1309 -1458 2758 -3003 3220 -3432 118 -110 245 -218 257 -218 7 0 2 2253 -5
2360 -44 645 -126 994 -292 1251 -92 142 -190 235 -325 308 -460 247 -3225
901 -3809 901 -60 0 -63 -1 -49 -17z"/>
<path d="M37430 66783 c0 -16 -5 -104 -10 -198 -30 -551 -72 -2033 -100 -3540
-64 -3506 -78 -8149 -30 -10060 11 -430 27 -867 36 -989 l6 -78 162 6 c1224
51 3447 304 5461 621 2034 321 3660 669 4651 996 l241 80 289 166 c159 91 290
166 291 167 7 6 -46 167 -92 281 -378 940 -1749 2929 -3644 5285 -2030 2525
-4196 4889 -5661 6181 -635 560 -1163 937 -1504 1073 -49 20 -90 36 -92 36 -2
0 -4 -12 -4 -27z"/>
<path d="M11553 55743 c-432 -347 -1013 -1093 -1720 -2213 -1143 -1810 -2555
-4543 -3118 -6035 -527 -1396 -1133 -3426 -1550 -5190 -368 -1558 -568 -2765
-646 -3895 -19 -267 -16 -888 5 -1089 9 -91 18 -167 21 -169 5 -6 12406 35
12411 41 10 9 56 236 88 432 51 302 100 631 236 1580 535 3726 731 4857 1056
6095 270 1028 519 1886 806 2780 181 563 278 824 643 1725 405 1000 579 1476
680 1860 43 164 69 305 58 315 -23 22 -926 390 -2023 825 -1197 474 -1697 678
-2255 918 -484 208 -647 286 -1850 879 -1380 681 -2014 966 -2484 1113 -116
37 -261 75 -284 75 -8 0 -41 -21 -74 -47z"/>
<path d="M49705 51475 c-205 -33 -463 -93 -1523 -354 -422 -104 -965 -237
-1207 -295 -3356 -802 -6063 -1241 -8385 -1361 -651 -33 -860 -65 -1060 -162
-71 -34 -110 -61 -157 -109 -162 -161 -187 -351 -139 -1049 14 -209 30 -499
34 -645 9 -280 0 -1814 -17 -3175 -25 -1960 -33 -3216 -28 -4450 7 -1445 19
-1973 60 -2530 l12 -160 835 -6 c459 -4 4148 -15 8198 -25 5856 -14 7365 -15
7375 -5 20 20 16 876 -6 1166 -95 1258 -337 2752 -723 4463 -822 3647 -1994
7060 -2887 8402 -72 109 -96 141 -181 248 -56 70 -55 70 -201 47z"/>
<path d="M23034 50928 c-625 -835 -1506 -3315 -2249 -6333 -606 -2457 -983
-4645 -1076 -6240 -21 -357 -9 -1127 18 -1155 5 -6 14913 -73 14919 -67 8 8
42 11493 35 11720 l-6 207 -85 80 c-57 53 -100 84 -130 94 -163 56 -1010 163
-3545 446 -1267 142 -1773 201 -2065 240 -143 19 -1130 206 -2955 560 -1507
291 -2752 533 -2766 536 -23 4 -33 -5 -95 -88z"/>
<path d="M53905 48849 c13 -79 102 -419 165 -629 34 -113 147 -475 252 -805
822 -2588 998 -3247 1317 -4945 132 -699 215 -1213 276 -1695 49 -395 77 -730
125 -1525 32 -521 76 -1093 124 -1588 24 -250 46 -455 48 -457 6 -6 4311 -54
4320 -49 11 7 10 133 -2 277 -67 773 -436 1819 -1151 3257 -614 1236 -1389
2581 -2309 4005 -501 776 -672 1022 -1601 2310 -250 347 -513 713 -584 815
-197 283 -368 514 -460 619 -148 172 -345 347 -486 430 l-41 24 7 -44z"/>
<path d="M59255 34710 c-476 -17 -1258 -31 -1825 -34 l-595 -2 -233 -48 c-128
-26 -247 -53 -265 -61 -29 -12 -35 -23 -59 -97 -142 -441 -228 -1009 -378
-2468 -119 -1173 -161 -1467 -319 -2250 -366 -1813 -1021 -4078 -1759 -6085
-219 -596 -318 -832 -602 -1450 -451 -980 -628 -1404 -754 -1815 -100 -328
-160 -680 -141 -840 l7 -59 136 -74 c739 -403 3294 -1525 5332 -2342 1267
-507 2085 -804 2500 -905 206 -50 170 -70 377 207 1917 2576 3005 4427 4253
7238 687 1548 1235 3187 1681 5030 405 1670 636 3162 721 4650 13 223 18 1328
7 1340 -6 6 -1135 -40 -1258 -51 l-63 -6 -63 -131 c-191 -400 -439 -1113 -755
-2167 -113 -377 -204 -694 -759 -2647 -413 -1451 -646 -2190 -866 -2747 -129
-325 -222 -515 -314 -638 l-35 -48 -29 28 c-406 382 -973 2639 -1663 6621
-117 678 -140 801 -184 983 -122 510 -295 725 -657 817 -177 45 -293 54 -768
56 -247 2 -549 -1 -670 -5z"/>
<path d="M4470 34598 c0 -392 63 -1300 136 -1963 605 -5520 3094 -11723 6363
-15850 429 -543 598 -679 841 -678 191 1 410 90 1015 413 1250 669 3569 1762
5080 2395 1072 449 2001 782 2643 946 72 19 132 37 132 40 0 3 -502 1536
-1116 3405 -1180 3596 -1153 3510 -1314 4189 -262 1107 -453 2153 -629 3435
-92 668 -174 1355 -336 2815 -48 429 -89 782 -91 784 -3 4 -12174 148 -12621
151 l-103 0 0 -82z"/>
<path d="M37367 28738 c34 -3269 62 -5982 62 -6029 l1 -85 383 -48 c3907 -486
7110 -973 8522 -1297 326 -75 512 -124 940 -250 823 -243 1109 -321 1455 -398
311 -70 646 -121 787 -121 52 0 52 0 118 74 639 711 1374 2332 2109 4646 602
1900 1175 4228 1525 6201 217 1220 357 2367 373 3059 l3 135 -510 2 c-1113 5
-15056 53 -15430 53 l-400 0 62 -5942z"/>
<path d="M19733 34333 c9 -457 35 -832 97 -1388 309 -2750 1298 -6882 2318
-9680 361 -991 726 -1788 1035 -2262 l66 -102 68 5 c306 25 889 127 3338 584
2291 428 3328 611 4140 734 722 108 920 126 1780 161 1007 40 1486 94 1871
211 l80 24 17 68 c100 396 155 1672 178 4142 18 1932 -10 5139 -61 6920 -14
494 -31 894 -39 901 -3 4 -3356 10 -7450 14 l-7444 7 6 -339z"/>
<path d="M33685 19983 c-722 -34 -1145 -63 -1740 -118 -2909 -273 -6061 -852
-7207 -1325 l-128 -52 0 -52 c0 -201 130 -581 359 -1052 422 -864 1176 -2060
2290 -3633 1269 -1791 2984 -4020 4246 -5521 127 -151 346 -412 485 -580 1130
-1358 1712 -1973 2230 -2360 175 -130 389 -254 408 -235 9 8 25 14916 16
14924 -6 6 -839 10 -959 4z"/>
<path d="M37326 18503 c-3 -807 -9 -4198 -12 -7535 l-7 -6068 52 16 c68 20
203 78 271 116 610 345 1378 1070 2529 2387 151 174 492 564 756 866 264 303
598 685 741 850 3701 4271 5903 7169 6489 8540 49 115 125 336 125 364 0 38
-317 192 -625 303 -1079 389 -3208 825 -5790 1187 -1593 223 -3288 397 -4155
426 -96 3 -218 8 -271 11 l-96 5 -7 -1468z"/>
<path d="M21890 17543 c-296 -18 -819 -155 -1462 -382 -1427 -505 -3571 -1435
-5353 -2322 -753 -375 -1192 -612 -1502 -813 l-73 -47 31 -62 c261 -516 1323
-1466 3035 -2713 1357 -989 3128 -2162 4229 -2801 717 -416 1858 -963 3095
-1485 2465 -1040 4745 -1743 6265 -1932 217 -28 665 -60 665 -48 0 1 -22 46
-49 100 -118 234 -261 448 -545 812 -270 347 -531 652 -1220 1425 -142 160
-322 367 -400 460 -104 124 -751 1018 -2372 3275 -1802 2510 -2252 3144 -2352
3309 -150 247 -290 495 -670 1182 -694 1255 -1007 1764 -1229 1994 -45 48 -51
51 -93 48z"/>
<path d="M50744 16977 c-162 -218 -357 -503 -1096 -1602 -1581 -2353 -2348
-3444 -3037 -4320 -113 -144 -4567 -5524 -5000 -6039 -16 -19 -12 -19 179 -12
661 23 1354 141 2240 381 2159 586 5053 1852 7820 3420 1251 709 2454 1489
3245 2104 772 601 1837 1507 2465 2098 372 350 594 585 710 754 l49 72 -28 36
c-217 270 -1155 798 -2611 1468 -1855 854 -3983 1672 -4654 1788 -163 28 -143
38 -282 -148z"/>
</g>
</svg>
